<svg id="splitsvg" version="1.1" xmlns="http://www.w3.org/2000/svg" xmlns:xlink="http://www.w3.org/1999/xlink" width="1380" height="860"><g id="svgg"><path id="path0" d="M198.917 116.849 C 198.642 116.933,196.992 117.297,195.250 117.658 C 191.463 118.442,190.290 118.704,185.167 119.914 C 177.764 121.663,166.832 125.097,159.167 128.082 C 149.784 131.736,137.096 138.006,129.083 142.949 C 122.940 146.738,117.874 150.284,112.917 154.265 C 110.525 156.186,107.457 158.705,106.829 159.266 C 101.026 164.437,99.323 166.073,96.068 169.603 L 94.667 171.122 94.667 200.000 L 94.667 228.878 96.068 230.397 C 99.309 233.911,101.577 236.088,106.842 240.738 C 121.544 253.720,142.887 266.079,163.417 273.498 C 170.297 275.985,179.126 278.659,185.167 280.086 C 190.159 281.265,191.386 281.540,195.167 282.332 C 196.862 282.688,198.666 283.071,199.174 283.183 C 199.989 283.364,200.273 283.346,201.591 283.034 C 202.412 282.839,203.796 282.529,204.667 282.344 C 206.082 282.043,209.113 281.378,211.917 280.754 C 213.171 280.474,214.720 280.089,216.333 279.655 C 217.021 279.471,218.108 279.181,218.750 279.011 C 224.138 277.586,231.322 275.347,235.917 273.662 C 236.375 273.494,237.162 273.207,237.667 273.024 C 240.489 271.999,247.169 269.286,249.417 268.250 C 249.875 268.039,251.037 267.514,252.000 267.083 C 269.873 259.083,290.666 244.612,302.530 231.917 L 305.333 228.917 305.333 200.017 L 305.333 171.118 304.552 170.267 C 301.122 166.531,298.026 163.542,293.158 159.266 C 281.929 149.403,265.928 139.159,252.000 132.918 C 251.037 132.486,249.875 131.961,249.417 131.750 C 247.137 130.702,240.422 127.974,237.667 126.976 C 237.162 126.793,236.375 126.504,235.917 126.334 C 235.458 126.163,234.374 125.785,233.507 125.492 C 232.639 125.200,231.777 124.901,231.590 124.827 C 231.190 124.670,227.232 123.432,224.500 122.610 C 222.594 122.036,221.141 121.627,218.753 120.990 C 218.065 120.807,216.959 120.511,216.293 120.333 C 214.698 119.906,213.147 119.521,211.917 119.246 C 208.494 118.484,206.040 117.946,204.583 117.640 C 203.667 117.448,202.342 117.150,201.639 116.978 C 200.251 116.640,199.686 116.613,198.917 116.849 M203.417 128.341 C 206.348 128.935,212.275 130.328,214.750 131.004 C 218.295 131.973,221.497 132.877,222.083 133.074 C 222.450 133.197,223.425 133.503,224.250 133.754 C 226.123 134.323,229.944 135.576,230.500 135.803 C 230.729 135.896,231.704 136.249,232.667 136.588 C 254.838 144.379,276.868 157.857,291.792 172.762 L 294.333 175.300 294.333 199.915 L 294.333 224.530 293.542 225.461 C 291.994 227.280,284.606 233.894,280.167 237.434 C 270.160 245.415,256.988 253.278,244.309 258.839 C 242.810 259.496,241.283 260.166,240.917 260.327 C 240.173 260.653,235.892 262.343,233.583 263.222 C 229.726 264.690,222.400 267.026,217.624 268.309 C 216.912 268.500,215.787 268.806,215.124 268.988 C 214.093 269.271,210.923 270.031,207.083 270.916 C 206.533 271.043,204.735 271.420,203.087 271.753 C 201.439 272.086,200.052 272.369,200.004 272.382 C 199.597 272.494,188.373 269.964,183.583 268.681 C 178.885 267.423,176.674 266.757,171.667 265.091 C 153.226 258.955,135.635 249.756,121.667 238.944 C 116.403 234.869,112.083 231.111,108.208 227.233 L 105.667 224.690 105.667 199.995 L 105.667 175.300 108.208 172.763 C 118.805 162.185,133.363 151.926,147.997 144.724 C 153.044 142.240,162.363 138.219,165.145 137.324 C 165.386 137.247,166.108 136.987,166.750 136.746 C 167.848 136.334,175.235 133.861,177.417 133.174 C 178.326 132.888,182.143 131.808,185.083 131.004 C 187.370 130.379,192.864 129.083,196.417 128.331 C 197.333 128.136,198.496 127.883,199.000 127.768 C 199.730 127.601,200.086 127.600,200.750 127.764 C 201.208 127.877,202.408 128.137,203.417 128.341 M197.417 135.074 C 196.958 135.190,195.833 135.456,194.917 135.666 C 182.260 138.564,168.999 142.897,158.054 147.711 L 155.690 148.750 155.637 154.917 C 155.607 158.308,155.607 181.081,155.635 205.524 L 155.688 249.964 156.635 250.377 C 157.157 250.604,158.633 251.218,159.917 251.743 C 163.240 253.100,163.569 253.237,165.334 253.990 C 166.205 254.362,166.973 254.667,167.042 254.667 C 167.111 254.667,167.167 243.567,167.167 230.000 L 167.167 205.333 172.053 205.333 L 176.940 205.333 181.970 212.042 L 187.000 218.750 187.000 239.926 L 187.000 261.103 188.042 261.364 C 188.615 261.507,190.421 261.972,192.056 262.395 C 194.555 263.043,198.041 263.833,198.401 263.833 C 198.456 263.833,198.500 252.886,198.500 239.506 L 198.500 215.179 197.792 214.191 C 197.402 213.648,195.883 211.577,194.417 209.588 C 192.950 207.600,191.582 205.735,191.377 205.445 C 190.882 204.742,190.025 203.569,188.441 201.423 L 187.133 199.650 187.608 198.960 C 187.870 198.581,189.229 196.728,190.628 194.844 C 192.028 192.959,194.390 189.767,195.878 187.750 L 198.583 184.083 198.531 159.458 C 198.503 145.915,198.428 134.840,198.365 134.848 C 198.302 134.857,197.875 134.958,197.417 135.074 M203.167 199.917 C 203.167 235.438,203.191 264.500,203.220 264.500 C 203.274 264.500,205.538 264.001,207.417 263.575 C 208.364 263.360,213.187 262.140,215.167 261.614 C 220.034 260.320,228.782 257.519,233.250 255.823 C 236.241 254.688,240.997 252.790,243.375 251.784 L 246.167 250.602 246.167 224.661 L 246.167 198.720 242.042 198.610 C 239.773 198.550,234.148 198.501,229.542 198.500 L 221.167 198.500 221.167 204.250 L 221.167 210.000 227.917 210.000 L 234.667 210.000 234.667 226.391 L 234.667 242.783 234.042 243.041 C 227.073 245.918,222.324 247.554,216.295 249.157 C 215.586 249.346,214.967 249.500,214.920 249.500 C 214.872 249.500,214.833 227.150,214.833 199.833 C 214.833 164.831,214.886 150.167,215.011 150.167 C 215.192 150.167,219.021 151.290,220.667 151.827 C 221.171 151.991,222.596 152.440,223.833 152.824 C 227.487 153.958,230.513 155.069,234.042 156.572 L 234.667 156.838 234.667 165.252 L 234.667 173.667 240.417 173.667 L 246.167 173.667 246.165 161.458 L 246.163 149.250 243.040 147.878 C 231.570 142.837,219.412 138.909,206.264 135.995 C 204.622 135.631,203.253 135.333,203.222 135.333 C 203.192 135.333,203.167 164.396,203.167 199.917 M186.606 167.190 L 186.491 181.714 185.027 183.732 C 184.221 184.842,182.109 187.757,180.333 190.211 L 177.104 194.672 172.344 194.628 L 167.583 194.583 167.625 176.750 L 167.667 158.917 168.292 158.603 C 169.815 157.839,178.976 154.657,182.250 153.755 C 183.167 153.503,184.367 153.159,184.917 152.991 C 185.467 152.823,186.098 152.681,186.319 152.676 L 186.721 152.667 186.606 167.190 M137.556 169.142 C 133.703 170.473,131.770 175.862,133.631 180.083 C 134.748 182.618,135.745 183.883,138.537 186.315 C 142.353 189.636,143.969 193.020,142.490 194.594 C 141.560 195.584,140.632 195.113,137.766 192.199 C 134.978 189.364,133.015 188.552,128.539 188.382 L 125.995 188.285 126.039 188.684 C 126.074 188.999,125.996 189.093,125.667 189.134 C 124.564 189.270,123.616 189.833,124.490 189.833 C 125.456 189.833,124.970 190.223,123.750 190.427 C 122.701 190.603,121.038 191.315,119.782 192.128 C 119.148 192.538,117.944 193.196,117.107 193.590 C 115.340 194.421,114.734 194.820,115.222 194.828 C 115.742 194.837,115.451 195.176,114.160 196.066 C 112.730 197.052,112.043 197.979,111.507 199.644 C 111.058 201.040,111.200 201.820,111.752 200.996 C 112.208 200.315,112.248 200.349,112.479 201.605 C 112.678 202.686,113.381 204.430,113.877 205.074 C 114.108 205.374,114.140 205.307,114.325 204.157 C 114.685 201.909,114.930 201.477,116.019 201.158 C 116.973 200.879,118.894 200.500,119.333 200.504 L 119.750 200.507 119.336 200.826 L 118.922 201.144 119.634 201.821 C 121.378 203.481,124.613 204.548,127.868 204.538 C 129.219 204.534,129.872 204.596,129.990 204.738 C 130.127 204.903,130.292 215.299,130.193 217.500 C 130.151 218.421,130.514 235.107,130.583 235.425 C 130.623 235.613,130.913 235.889,131.227 236.039 C 131.541 236.188,132.087 236.576,132.441 236.901 C 133.700 238.056,135.622 239.019,135.035 238.200 C 134.691 237.721,134.627 237.511,134.736 237.225 C 134.856 236.914,137.510 236.989,138.404 237.328 C 138.740 237.456,138.845 237.452,138.798 237.312 C 138.764 237.207,138.363 236.977,137.909 236.800 C 136.376 236.203,136.345 235.769,137.789 235.150 C 138.801 234.716,138.674 234.611,137.292 234.741 C 135.263 234.930,132.811 234.296,132.247 233.435 C 131.834 232.805,131.558 219.111,131.939 218.160 C 132.194 217.521,132.190 217.440,131.854 216.562 C 131.518 215.685,131.500 215.347,131.502 210.027 L 131.504 204.417 132.627 203.930 C 133.532 203.537,134.000 203.440,135.041 203.430 C 136.257 203.417,136.651 203.278,136.083 203.060 C 135.512 202.841,135.917 202.753,137.249 202.809 C 140.172 202.930,143.569 201.705,145.498 199.833 C 146.891 198.481,148.454 194.708,147.463 195.089 C 147.264 195.165,147.196 194.948,147.111 193.967 C 147.053 193.298,146.956 192.420,146.894 192.016 C 146.813 191.483,146.835 191.315,146.974 191.401 C 147.273 191.586,146.916 190.763,146.321 189.899 C 145.666 188.947,143.317 186.667,141.595 185.313 C 141.339 185.112,141.206 184.894,141.288 184.812 C 141.369 184.731,140.985 184.209,140.403 183.613 C 136.523 179.637,135.779 175.782,138.421 173.347 C 139.380 172.463,139.569 172.485,139.907 173.518 C 140.650 175.789,142.697 177.669,145.039 178.229 C 145.294 178.290,145.600 178.539,145.735 178.794 C 145.868 179.045,146.320 179.604,146.738 180.036 C 147.659 180.985,147.659 180.771,146.749 185.542 C 146.377 187.490,149.480 184.589,150.578 181.962 C 151.317 180.193,151.088 179.270,148.641 174.167 C 147.321 171.414,146.058 169.839,145.167 169.833 C 145.029 169.832,144.693 169.715,144.420 169.573 C 143.139 168.904,138.995 168.644,137.556 169.142 M260.203 169.090 C 259.444 169.222,258.619 169.433,258.370 169.558 C 258.120 169.684,257.723 169.833,257.485 169.890 C 256.351 170.161,254.763 172.415,253.503 175.542 C 253.235 176.206,252.819 177.156,252.578 177.651 C 251.808 179.238,251.576 180.502,251.917 181.269 C 252.921 183.536,253.218 184.011,254.196 184.917 C 256.077 186.658,256.283 186.604,255.848 184.485 C 255.670 183.622,255.473 182.454,255.409 181.889 L 255.293 180.862 256.033 180.056 C 256.440 179.613,256.942 179.006,257.148 178.708 C 257.354 178.410,257.623 178.167,257.747 178.167 C 259.505 178.167,262.257 175.641,262.921 173.417 C 263.194 172.501,263.523 172.507,264.460 173.447 C 266.986 175.983,266.202 179.801,262.381 183.571 C 261.813 184.130,261.404 184.672,261.436 184.821 C 261.470 184.980,261.060 185.444,260.397 186.000 C 258.441 187.637,256.728 189.404,256.193 190.337 C 255.637 191.308,255.547 191.594,255.860 191.400 C 255.995 191.317,256.020 191.400,255.941 191.682 C 255.880 191.903,255.782 192.781,255.723 193.633 C 255.634 194.909,255.572 195.166,255.367 195.087 C 254.970 194.935,255.216 196.577,255.765 197.735 C 257.190 200.745,261.453 202.969,265.484 202.805 C 266.741 202.754,267.073 202.832,266.667 203.083 C 266.276 203.325,266.581 203.417,267.803 203.428 C 268.898 203.438,269.281 203.522,270.219 203.961 L 271.333 204.482 271.313 207.366 C 271.279 212.376,271.078 216.374,270.833 216.942 C 270.638 217.394,270.642 217.582,270.866 218.276 C 271.262 219.508,270.957 232.874,270.517 233.500 C 270.006 234.229,268.232 234.720,266.125 234.716 C 264.055 234.711,264.078 234.699,265.155 235.244 C 266.513 235.932,266.453 236.228,264.830 236.834 C 263.824 237.211,263.557 237.637,264.544 237.293 C 265.628 236.915,268.075 237.028,268.137 237.458 C 268.166 237.665,268.122 237.833,268.038 237.833 C 267.955 237.833,267.801 238.021,267.697 238.250 C 267.347 239.017,268.864 238.202,270.560 236.712 C 271.005 236.320,271.455 235.999,271.560 235.997 C 272.253 235.988,272.245 236.081,272.367 227.048 C 272.431 222.301,272.489 216.167,272.495 213.417 C 272.501 210.667,272.561 207.554,272.628 206.500 L 272.750 204.583 274.917 204.554 C 279.258 204.495,284.597 202.137,283.395 200.809 C 283.007 200.381,283.497 200.391,285.529 200.854 C 287.862 201.386,288.182 201.733,288.427 204.000 C 288.578 205.402,288.630 205.467,289.070 204.804 C 289.598 204.008,290.088 202.742,290.333 201.542 C 290.507 200.689,290.822 200.116,290.837 200.625 C 290.839 200.694,290.994 200.938,291.181 201.167 L 291.522 201.583 291.457 200.667 C 291.332 198.877,290.124 196.990,288.413 195.911 C 288.140 195.739,287.739 195.464,287.522 195.301 L 287.127 195.004 287.502 194.865 C 287.923 194.710,287.462 194.354,286.167 193.834 C 285.846 193.706,284.946 193.232,284.167 192.782 C 280.775 190.823,280.720 190.799,278.285 190.260 C 277.778 190.148,277.821 189.833,278.343 189.833 C 279.217 189.833,278.270 189.270,277.167 189.134 C 276.837 189.093,276.759 188.999,276.794 188.684 L 276.838 188.285 274.294 188.378 C 269.617 188.549,267.834 189.325,264.573 192.612 C 261.919 195.287,260.794 195.708,260.066 194.300 C 259.106 192.442,260.715 189.410,264.353 186.225 C 269.425 181.784,271.126 177.017,269.101 172.919 C 267.361 169.399,264.789 168.292,260.203 169.090 M126.546 296.257 C 121.600 297.589,118.756 302.867,120.307 307.833 C 123.104 316.784,135.879 316.100,137.928 306.890 C 139.464 299.987,133.474 294.391,126.546 296.257 M153.013 296.520 C 149.250 298.400,149.973 302.122,154.862 306.022 C 158.592 308.998,158.121 313.330,154.067 313.332 C 152.147 313.334,151.114 312.836,150.528 311.628 L 150.183 310.917 150.175 312.190 L 150.167 313.464 150.864 313.743 C 152.713 314.483,156.280 313.959,157.535 312.763 C 160.390 310.042,159.339 306.772,154.371 302.916 C 151.764 300.892,151.387 298.208,153.541 296.997 C 154.787 296.297,157.816 296.808,158.248 297.792 C 158.517 298.406,158.667 298.223,158.667 297.279 L 158.667 296.391 157.821 296.195 C 156.127 295.804,154.182 295.936,153.013 296.520 M214.833 296.342 C 210.038 297.586,207.487 301.891,208.494 307.043 C 209.521 312.305,215.444 315.289,221.869 313.782 C 223.881 313.309,223.796 313.484,223.915 309.583 C 224.034 305.696,224.058 305.533,224.547 305.337 C 224.792 305.238,224.216 305.190,222.833 305.194 C 221.688 305.197,220.937 305.252,221.165 305.315 C 221.896 305.519,221.995 306.003,221.998 309.371 L 222.000 312.491 221.458 312.772 C 218.739 314.182,213.699 312.534,211.815 309.618 C 208.933 305.158,210.055 299.194,214.136 297.284 C 217.220 295.841,223.563 297.134,223.688 299.231 C 223.719 299.755,223.973 298.193,223.988 297.391 L 224.000 296.698 223.125 296.580 C 222.644 296.514,221.762 296.359,221.167 296.233 C 219.548 295.893,216.354 295.948,214.833 296.342 M242.551 296.469 C 232.691 299.806,235.541 314.821,245.895 314.087 C 251.355 313.700,254.667 310.130,254.667 304.632 C 254.667 298.334,248.774 294.363,242.551 296.469 M176.167 296.329 C 173.921 296.377,172.210 296.469,172.365 296.532 C 172.920 296.761,172.998 297.782,172.999 304.783 C 173.000 312.003,172.909 313.145,172.299 313.572 C 172.002 313.780,172.506 313.806,176.354 313.780 L 180.747 313.750 180.941 312.917 C 181.151 312.013,181.227 310.690,181.022 311.500 C 180.964 311.729,180.842 312.038,180.750 312.186 C 180.093 313.246,176.277 313.521,175.263 312.581 L 174.833 312.183 174.833 308.495 L 174.833 304.807 176.879 304.875 C 179.021 304.946,179.808 305.194,179.853 305.811 C 179.885 306.254,180.126 305.139,180.147 304.447 C 180.163 303.916,180.118 303.824,179.875 303.893 C 179.715 303.938,178.533 304.000,177.250 304.029 L 174.917 304.083 174.872 300.555 L 174.827 297.027 176.788 297.113 C 179.341 297.225,179.928 297.374,180.132 297.961 C 180.280 298.390,180.297 298.368,180.409 297.583 C 180.474 297.125,180.564 296.619,180.609 296.458 C 180.658 296.278,180.605 296.181,180.470 296.204 C 180.349 296.224,178.412 296.281,176.167 296.329 M96.241 296.726 C 96.588 297.072,96.668 297.316,96.674 298.034 C 96.678 298.520,96.701 301.317,96.726 304.250 C 96.782 310.985,96.679 313.027,96.257 313.492 L 95.948 313.833 97.743 313.833 C 99.517 313.833,99.533 313.830,99.155 313.524 C 98.681 313.140,98.521 311.927,98.509 308.625 L 98.500 306.333 100.109 306.333 L 101.718 306.333 102.252 306.958 C 102.546 307.302,103.574 308.633,104.538 309.917 C 107.268 313.554,107.674 313.838,110.120 313.826 C 111.520 313.819,111.557 313.809,110.980 313.603 C 109.663 313.133,107.163 310.878,106.112 309.212 C 105.884 308.851,105.296 308.074,104.805 307.486 C 103.353 305.745,103.416 305.851,103.695 305.620 C 106.310 303.445,106.983 299.844,105.162 297.770 C 104.065 296.521,103.714 296.433,99.533 296.363 L 95.816 296.301 96.241 296.726 M267.690 296.652 L 268.083 296.970 268.135 304.193 C 268.190 311.938,268.136 313.031,267.680 313.486 C 267.402 313.765,267.604 313.780,272.009 313.811 L 276.630 313.844 276.815 313.314 C 276.917 313.022,277.000 312.596,277.000 312.367 L 277.000 311.951 276.598 312.386 C 275.454 313.620,270.846 313.361,270.300 312.033 C 269.906 311.073,270.076 297.371,270.489 296.812 L 270.843 296.333 269.070 296.333 C 267.298 296.333,267.297 296.334,267.690 296.652 M289.404 296.849 L 289.838 297.364 289.794 305.057 C 289.749 312.935,289.720 313.292,289.100 313.706 C 288.999 313.773,289.292 313.830,289.750 313.832 C 290.208 313.833,292.083 313.883,293.917 313.941 C 301.779 314.191,305.811 310.772,305.345 304.250 C 304.918 298.261,301.902 296.335,292.944 296.334 L 288.970 296.333 289.404 296.849 M131.492 297.230 C 134.572 298.778,136.005 301.290,135.997 305.133 C 135.987 310.308,133.611 313.236,129.417 313.246 C 121.178 313.264,118.999 299.405,126.833 296.813 C 127.780 296.499,130.527 296.746,131.492 297.230 M248.180 297.289 C 251.765 299.064,253.424 303.430,252.259 308.026 C 250.475 315.069,241.947 315.174,239.202 308.187 C 238.206 305.652,238.684 300.995,240.136 299.085 C 241.922 296.736,245.464 295.945,248.180 297.289 M101.917 297.231 C 105.227 298.795,105.300 304.778,102.020 305.661 C 101.282 305.860,99.119 305.640,98.743 305.328 C 98.272 304.937,98.395 297.198,98.875 297.005 C 99.609 296.710,101.041 296.816,101.917 297.231 M297.000 297.272 C 304.382 299.082,305.992 309.386,299.396 312.609 L 298.083 313.250 295.667 313.250 C 293.147 313.250,292.584 313.120,291.988 312.402 C 291.675 312.026,291.532 297.613,291.838 297.245 C 292.223 296.780,295.053 296.795,297.000 297.272  M -25 0 L -5 0 L -5 20 L -25 20 Z M 405 0 L 425 0 L 425 20 L 405 20 Z" stroke="none" fill="#bc8a93" fill-rule="evenodd" transform="translate(30,0)"></path><path id="path1" d="M0.000 200.000 L 0.000 400.000 200.000 400.000 L 400.000 400.000 400.000 200.000 L 400.000 0.000 200.000 0.000 L 0.000 0.000 0.000 200.000 M202.361 116.986 C 209.609 118.572,211.210 118.932,214.000 119.606 C 215.696 120.015,217.458 120.458,217.917 120.590 C 218.375 120.722,220.512 121.326,222.667 121.934 C 254.679 130.961,283.105 147.519,303.708 169.140 L 305.500 171.020 305.500 200.000 L 305.500 228.980 303.722 230.865 C 288.666 246.822,269.015 260.039,245.133 270.271 C 239.525 272.674,229.722 276.072,222.583 278.088 C 220.475 278.683,218.375 279.278,217.917 279.410 C 217.458 279.542,215.696 279.985,214.000 280.394 C 211.182 281.074,209.266 281.505,202.386 283.007 L 200.022 283.523 198.386 283.165 C 197.486 282.968,195.362 282.518,193.667 282.164 C 189.201 281.234,181.984 279.502,179.500 278.765 C 179.088 278.643,178.188 278.384,177.500 278.189 C 167.945 275.482,159.104 272.277,149.833 268.157 C 135.122 261.620,119.102 251.446,106.667 240.743 C 102.401 237.071,100.452 235.214,96.292 230.857 L 94.500 228.980 94.500 200.000 L 94.500 171.020 96.292 169.143 C 100.460 164.778,102.415 162.915,106.667 159.260 C 119.511 148.218,134.651 138.601,149.833 131.844 C 163.926 125.571,178.307 120.999,194.417 117.672 C 195.792 117.388,197.517 117.017,198.250 116.848 C 200.021 116.439,199.831 116.433,202.361 116.986 M196.167 128.512 C 184.629 131.092,177.911 132.979,168.417 136.307 C 144.954 144.533,124.249 157.095,108.464 172.681 L 105.833 175.279 105.833 199.991 L 105.833 224.703 108.208 227.065 C 116.549 235.357,126.937 243.273,137.917 249.707 C 144.761 253.717,154.442 258.451,161.243 261.114 C 162.072 261.439,163.313 261.926,164.000 262.196 C 166.861 263.322,173.051 265.469,175.917 266.329 C 182.190 268.211,189.466 270.131,193.000 270.835 C 193.412 270.917,195.022 271.250,196.577 271.575 C 200.255 272.344,199.485 272.388,205.667 271.064 C 240.218 263.664,270.985 247.901,292.042 226.809 L 294.167 224.680 294.167 200.031 L 294.167 175.382 292.854 173.979 C 276.532 156.534,247.679 140.326,218.417 132.163 C 217.683 131.959,216.590 131.651,215.987 131.481 C 214.510 131.062,207.176 129.294,205.000 128.832 C 204.037 128.628,202.625 128.319,201.862 128.147 C 199.999 127.726,199.556 127.755,196.167 128.512 M198.667 159.408 L 198.667 184.150 196.412 187.200 C 193.998 190.466,189.000 197.271,187.939 198.737 L 187.294 199.628 192.980 207.380 L 198.667 215.132 198.667 239.581 L 198.667 264.029 197.958 263.917 C 196.431 263.675,189.448 261.945,187.125 261.234 C 186.849 261.149,186.833 259.990,186.833 239.963 L 186.833 218.781 181.793 212.057 L 176.753 205.333 172.043 205.333 L 167.333 205.333 167.333 230.056 C 167.333 255.203,167.335 255.096,166.857 254.826 C 166.402 254.569,164.760 253.874,161.167 252.418 C 159.287 251.656,157.244 250.804,156.625 250.524 L 155.500 250.014 155.500 199.371 L 155.500 148.728 156.125 148.427 C 162.783 145.214,175.135 140.777,185.167 137.995 C 188.584 137.047,197.568 134.824,198.542 134.685 C 198.610 134.675,198.667 145.800,198.667 159.408 M206.000 135.831 C 208.980 136.491,212.543 137.348,214.333 137.836 C 214.929 137.998,216.167 138.334,217.083 138.582 C 225.620 140.890,234.260 143.954,242.958 147.757 L 246.333 149.232 246.333 161.535 L 246.333 173.838 240.458 173.794 L 234.583 173.750 234.540 165.321 L 234.497 156.892 233.290 156.367 C 229.831 154.862,227.662 154.104,220.333 151.841 L 215.083 150.220 215.041 199.721 C 215.018 226.946,215.028 249.250,215.063 249.285 C 215.098 249.320,215.679 249.203,216.355 249.026 C 221.458 247.684,226.841 245.885,231.500 243.964 C 232.829 243.416,234.048 242.929,234.208 242.881 C 234.484 242.799,234.500 241.874,234.500 226.481 L 234.500 210.167 227.750 210.167 L 221.000 210.167 221.000 204.250 L 221.000 198.333 224.542 198.333 C 226.490 198.334,232.190 198.383,237.208 198.444 L 246.333 198.555 246.333 224.596 L 246.333 250.637 243.292 251.908 C 241.619 252.608,240.021 253.281,239.742 253.404 C 239.463 253.528,238.750 253.818,238.159 254.049 C 237.567 254.280,236.371 254.748,235.500 255.088 C 234.629 255.429,233.729 255.767,233.500 255.839 C 233.271 255.911,232.446 256.206,231.667 256.494 C 228.424 257.692,221.376 259.973,218.250 260.836 C 217.517 261.039,216.579 261.304,216.167 261.426 C 213.521 262.209,205.114 264.278,203.911 264.443 L 203.167 264.545 203.167 199.874 L 203.167 135.202 203.792 135.341 C 204.135 135.418,205.129 135.638,206.000 135.831 M182.833 153.743 C 178.604 154.969,172.590 157.017,168.292 158.695 L 167.833 158.874 167.833 176.687 L 167.833 194.500 172.458 194.496 L 177.083 194.491 177.765 193.537 C 178.139 193.013,180.172 190.218,182.281 187.328 C 184.390 184.437,186.203 181.911,186.308 181.714 C 186.671 181.037,186.573 152.831,186.208 152.841 C 186.048 152.846,184.529 153.252,182.833 153.743 M143.446 169.177 C 146.455 169.940,147.650 171.207,149.404 175.500 C 149.648 176.096,149.988 176.846,150.159 177.167 C 150.645 178.074,151.167 179.761,151.167 180.421 C 151.167 182.029,148.756 185.508,147.195 186.155 C 146.464 186.458,146.468 186.476,146.845 184.409 C 147.496 180.846,147.504 180.962,146.549 179.953 C 146.092 179.470,145.637 178.923,145.538 178.738 C 145.434 178.543,144.984 178.284,144.467 178.121 C 142.354 177.455,140.579 175.742,139.846 173.660 C 139.431 172.482,139.374 172.482,138.293 173.649 C 135.894 176.240,136.588 179.416,140.443 183.504 C 141.040 184.136,141.483 184.725,141.429 184.813 C 141.375 184.901,141.537 185.135,141.790 185.334 C 142.274 185.713,143.812 187.125,145.306 188.562 C 146.416 189.630,147.914 192.212,147.148 191.739 C 147.020 191.659,146.992 191.820,147.058 192.271 C 147.110 192.626,147.200 193.380,147.258 193.947 C 147.344 194.789,147.411 194.960,147.624 194.878 C 147.847 194.792,147.867 194.901,147.767 195.656 C 147.440 198.122,145.877 200.213,143.500 201.365 C 142.904 201.653,142.227 201.984,141.995 202.099 C 141.156 202.517,139.278 202.833,137.615 202.838 C 136.380 202.842,135.996 202.890,136.208 203.013 C 136.772 203.341,136.487 203.467,135.042 203.529 C 133.873 203.579,133.373 203.688,132.528 204.075 L 131.473 204.558 131.576 210.070 C 131.657 214.405,131.737 215.788,131.950 216.542 C 132.180 217.360,132.188 217.598,132.002 218.160 C 131.726 218.998,131.916 232.634,132.214 233.287 C 132.577 234.084,134.634 234.710,136.741 234.663 C 138.748 234.619,139.327 234.778,138.292 235.091 C 136.531 235.622,136.393 236.136,137.862 236.697 C 138.860 237.078,139.527 237.699,138.647 237.428 C 138.429 237.361,137.444 237.265,136.458 237.215 C 134.509 237.116,134.388 237.177,135.000 237.955 C 136.013 239.242,134.034 238.470,132.274 236.890 C 131.881 236.538,131.329 236.127,131.047 235.976 C 130.537 235.703,130.534 235.695,130.439 233.976 C 130.289 231.277,130.123 218.917,130.141 211.750 C 130.150 208.175,130.099 205.111,130.028 204.940 C 129.913 204.662,129.658 204.626,127.492 204.587 C 124.166 204.528,121.246 203.514,119.433 201.789 L 118.755 201.144 119.169 200.826 C 119.701 200.417,119.660 200.419,117.446 200.928 C 114.904 201.512,114.720 201.732,114.403 204.542 C 114.344 205.069,114.246 205.500,114.186 205.500 C 113.768 205.500,112.580 202.863,112.243 201.185 L 112.130 200.620 111.799 201.143 C 110.978 202.440,110.963 200.390,111.781 198.642 C 112.372 197.379,113.040 196.660,114.519 195.694 C 115.334 195.161,115.491 195.000,115.193 195.000 C 114.434 195.000,114.949 194.575,116.924 193.571 C 118.020 193.014,119.556 192.182,120.338 191.722 C 121.812 190.853,122.914 190.420,124.122 190.234 C 124.859 190.120,124.944 189.833,124.240 189.833 C 123.547 189.833,123.791 189.525,124.697 189.256 C 125.172 189.115,125.664 189.000,125.791 189.000 C 125.945 189.000,125.988 188.891,125.918 188.672 C 125.769 188.202,126.345 188.101,128.564 188.211 C 132.810 188.421,135.059 189.374,137.830 192.135 C 140.771 195.065,141.566 195.464,142.494 194.469 C 143.659 193.217,142.441 190.228,139.688 187.583 C 134.990 183.072,134.690 182.706,133.546 180.104 C 131.518 175.492,134.016 169.592,138.320 168.829 C 139.392 168.639,142.028 168.818,143.446 169.177 M265.801 169.254 C 271.296 171.757,271.278 179.819,265.766 185.000 C 260.687 189.774,259.348 191.854,260.030 193.914 C 260.610 195.666,261.677 195.341,264.495 192.556 C 267.708 189.382,269.730 188.469,274.101 188.223 C 276.194 188.105,276.870 188.204,276.798 188.620 C 276.764 188.813,276.926 188.943,277.333 189.049 C 278.904 189.459,279.186 189.713,278.292 189.912 C 277.786 190.024,277.827 190.048,278.902 190.276 C 280.196 190.551,281.833 191.248,283.064 192.048 C 283.518 192.342,284.792 193.033,285.896 193.583 C 287.879 194.571,288.407 195.000,287.641 195.000 C 287.343 195.000,287.506 195.169,288.350 195.735 C 289.761 196.682,290.731 197.793,291.179 198.975 C 291.872 200.806,291.761 202.378,291.024 201.166 C 290.660 200.567,290.611 200.609,290.428 201.667 C 290.257 202.659,289.520 204.406,289.018 205.007 L 288.539 205.580 288.317 204.012 C 287.999 201.768,287.790 201.510,285.911 201.053 C 283.661 200.505,283.181 200.438,283.542 200.723 C 285.064 201.926,279.577 204.515,275.350 204.589 C 273.535 204.620,272.919 204.686,272.824 204.857 C 272.724 205.035,272.596 214.267,272.650 217.417 C 272.656 217.783,272.606 221.991,272.539 226.766 C 272.413 235.686,272.387 236.000,271.764 236.000 C 271.657 236.000,271.122 236.379,270.576 236.843 C 269.572 237.695,268.033 238.667,267.688 238.667 C 267.388 238.667,267.470 238.246,267.833 237.917 C 268.568 237.252,268.301 237.124,266.375 237.213 C 265.390 237.259,264.415 237.351,264.208 237.418 C 263.939 237.505,263.833 237.472,263.833 237.304 C 263.833 237.168,264.221 236.937,264.753 236.756 C 266.284 236.236,266.316 235.631,264.838 235.188 C 264.476 235.079,264.136 234.918,264.080 234.829 C 263.970 234.650,264.139 234.636,266.083 234.662 C 268.821 234.698,270.627 233.887,270.739 232.571 C 270.863 231.126,270.878 218.537,270.757 217.893 C 270.668 217.416,270.707 216.954,270.885 216.393 C 271.088 215.753,271.156 214.430,271.210 210.082 L 271.278 204.581 270.264 204.084 C 269.426 203.673,268.997 203.577,267.792 203.527 C 266.347 203.467,266.061 203.342,266.625 203.013 C 266.837 202.890,266.464 202.842,265.250 202.838 C 260.878 202.825,257.142 200.841,255.666 197.749 C 255.061 196.481,254.774 194.711,255.200 194.874 C 255.407 194.954,255.472 194.741,255.558 193.694 C 255.615 192.991,255.713 192.236,255.774 192.016 C 255.853 191.733,255.829 191.650,255.693 191.734 C 254.921 192.211,256.151 189.896,257.295 188.720 C 258.128 187.863,260.726 185.487,261.244 185.108 C 261.427 184.975,261.482 184.842,261.381 184.779 C 261.288 184.722,261.719 184.148,262.340 183.505 C 266.252 179.450,266.964 176.171,264.482 173.634 C 263.500 172.631,263.167 172.460,263.167 172.958 C 263.166 174.747,260.092 177.853,257.918 178.261 C 257.561 178.328,257.309 178.504,257.187 178.771 C 257.085 178.996,256.659 179.546,256.240 179.994 C 255.716 180.554,255.476 180.954,255.472 181.279 C 255.466 181.733,256.086 185.444,256.267 186.042 C 256.499 186.804,254.823 185.845,253.658 184.549 C 252.513 183.274,251.418 180.939,251.584 180.123 C 252.040 177.877,255.094 171.686,256.339 170.484 C 257.964 168.915,263.482 168.198,265.801 169.254 M131.511 296.086 C 136.368 297.107,139.141 301.687,138.019 306.833 C 135.636 317.756,119.813 316.233,119.842 305.083 C 119.858 298.841,125.163 294.750,131.511 296.086 M158.108 296.098 L 158.800 296.198 158.713 297.558 C 158.613 299.114,158.424 299.516,158.284 298.470 C 158.012 296.442,153.835 296.122,152.666 298.040 C 151.689 299.643,152.422 301.249,155.101 303.371 C 158.164 305.798,159.086 307.160,159.078 309.250 C 159.066 312.780,156.004 314.909,152.088 314.111 C 149.936 313.672,149.860 313.559,150.107 311.191 C 150.232 309.991,150.500 309.820,150.500 310.939 C 150.500 313.241,154.896 314.141,156.549 312.177 C 158.088 310.348,157.387 308.188,154.494 305.846 C 151.699 303.582,150.817 302.363,150.706 300.612 C 150.465 296.828,152.904 295.341,158.108 296.098 M221.527 296.166 C 222.749 296.348,223.832 296.498,223.933 296.499 C 224.142 296.500,224.050 299.821,223.835 300.054 C 223.765 300.130,223.658 299.859,223.597 299.452 C 223.420 298.266,222.275 297.497,220.054 297.073 C 214.582 296.026,211.046 298.150,210.454 302.841 C 209.620 309.453,214.862 314.393,221.039 312.814 C 221.983 312.573,222.029 312.370,221.897 308.971 C 221.766 305.570,221.680 305.333,220.583 305.333 C 220.262 305.333,220.000 305.262,220.000 305.175 C 220.000 304.970,225.466 304.976,225.592 305.181 C 225.644 305.265,225.476 305.334,225.218 305.336 C 224.138 305.342,224.000 305.857,224.000 309.871 L 224.000 312.994 223.208 313.389 C 221.192 314.395,217.796 314.536,214.747 313.742 C 205.686 311.382,206.071 297.910,215.250 296.095 C 216.932 295.763,218.985 295.786,221.527 296.166 M247.947 296.073 C 253.005 297.141,255.720 301.596,254.590 306.970 C 252.860 315.190,241.322 317.042,237.536 309.707 C 233.682 302.240,239.718 294.335,247.947 296.073 M180.606 296.773 C 180.548 297.199,180.500 297.836,180.500 298.190 C 180.500 298.949,180.251 299.045,180.110 298.341 C 179.941 297.496,179.394 297.291,177.073 297.202 L 175.000 297.122 175.000 300.580 L 175.000 304.038 177.328 303.974 C 178.871 303.932,179.726 303.841,179.862 303.705 C 180.354 303.213,180.431 304.114,180.061 306.043 C 179.967 306.534,179.667 306.513,179.667 306.016 C 179.667 305.303,179.081 305.087,176.983 305.024 L 175.000 304.965 175.000 308.534 C 175.000 312.673,174.995 312.658,176.351 312.844 C 178.611 313.154,180.830 312.635,180.836 311.794 C 180.839 311.388,181.096 310.874,181.230 311.008 C 181.375 311.153,181.010 313.537,180.805 313.784 C 180.613 314.015,171.423 313.978,171.190 313.746 C 171.147 313.702,171.308 313.667,171.549 313.667 C 172.794 313.667,172.833 313.390,172.833 304.668 C 172.833 296.422,172.845 296.500,171.581 296.500 C 171.272 296.500,170.974 296.426,170.918 296.336 C 170.853 296.230,172.521 296.155,175.617 296.125 C 178.257 296.099,180.483 296.060,180.564 296.039 C 180.646 296.018,180.664 296.348,180.606 296.773 M103.790 296.646 C 107.065 298.122,107.250 301.977,104.199 305.200 L 103.615 305.817 104.091 306.450 C 107.908 311.523,109.794 313.324,111.567 313.590 C 113.071 313.815,111.977 314.058,110.025 313.932 C 107.321 313.757,106.917 313.444,103.602 308.945 L 101.799 306.500 100.233 306.500 L 98.667 306.500 98.667 309.176 C 98.667 313.097,98.883 313.667,100.372 313.667 C 100.656 313.667,100.840 313.716,100.780 313.775 C 100.690 313.866,95.611 313.903,95.083 313.817 C 94.992 313.802,95.178 313.743,95.498 313.686 C 96.576 313.495,96.578 313.482,96.631 305.167 C 96.685 296.575,96.693 296.627,95.375 296.532 C 94.985 296.504,94.667 296.404,94.667 296.311 C 94.667 295.912,102.825 296.211,103.790 296.646 M272.000 296.333 C 272.000 296.425,271.703 296.500,271.339 296.500 C 270.233 296.500,270.250 296.383,270.250 304.167 C 270.250 313.485,270.040 312.919,273.493 312.914 C 276.032 312.910,276.551 312.714,276.838 311.649 C 277.064 310.811,277.252 310.935,277.191 311.882 C 277.119 312.996,276.853 313.805,276.525 313.909 C 276.175 314.020,266.643 313.865,266.524 313.746 C 266.480 313.702,266.639 313.667,266.877 313.667 C 268.032 313.667,268.083 313.286,268.083 304.660 C 268.083 296.367,268.104 296.500,266.829 296.500 C 266.465 296.500,266.167 296.425,266.167 296.333 C 266.167 296.229,267.250 296.167,269.083 296.167 C 270.917 296.167,272.000 296.229,272.000 296.333 M299.780 296.723 C 308.433 299.584,307.177 312.325,298.083 313.938 C 296.764 314.172,296.149 314.180,292.981 314.001 C 291.000 313.888,289.163 313.842,288.898 313.898 C 288.633 313.954,288.304 313.926,288.167 313.836 C 287.976 313.710,288.043 313.671,288.454 313.669 C 289.591 313.664,289.583 313.722,289.583 304.983 C 289.583 296.257,289.617 296.500,288.401 296.500 C 288.099 296.500,287.802 296.418,287.740 296.318 C 287.458 295.861,298.276 296.226,299.780 296.723 M127.300 296.913 C 123.387 297.717,121.356 301.879,122.418 306.917 C 124.061 314.707,133.825 315.542,135.604 308.045 C 137.180 301.409,132.959 295.752,127.300 296.913 M243.875 296.919 C 236.244 298.577,237.260 311.930,245.110 313.150 C 248.684 313.706,251.559 311.412,252.281 307.429 C 253.465 300.902,249.332 295.734,243.875 296.919 M99.042 297.107 L 98.667 297.190 98.667 301.258 L 98.667 305.327 99.042 305.403 C 102.664 306.138,104.270 304.931,104.236 301.500 C 104.204 298.312,102.008 296.454,99.042 297.107 M291.944 297.278 C 291.722 297.500,291.822 311.718,292.049 312.167 C 292.629 313.314,297.111 313.544,299.241 312.535 C 304.593 310.001,304.841 301.820,299.666 298.500 C 297.989 297.423,292.645 296.578,291.944 297.278  M -25 0 L -5 0 L -5 20 L -25 20 Z M 405 0 L 425 0 L 425 20 L 405 20 Z" stroke="none" fill="#040404" fill-rule="evenodd" transform="translate(490,0)"></path><path id="path2" d="M214.874 199.782 C 214.852 227.024,214.890 249.348,214.958 249.391 C 215.071 249.461,215.071 216.113,214.958 168.167 C 214.934 158.313,214.897 172.539,214.874 199.782 M234.581 165.375 L 234.583 173.750 240.458 173.753 L 246.333 173.756 240.502 173.709 L 234.670 173.662 234.624 165.331 L 234.579 157.000 234.581 165.375 M167.747 176.667 C 167.747 186.521,167.767 190.552,167.792 185.625 C 167.816 180.698,167.816 172.635,167.792 167.708 C 167.767 162.781,167.747 166.813,167.747 176.667 M295.167 160.885 C 295.167 160.914,295.410 161.158,295.708 161.427 L 296.250 161.917 295.760 161.375 C 295.304 160.870,295.167 160.757,295.167 160.885 M102.409 163.042 L 101.750 163.750 102.458 163.091 C 102.848 162.729,103.167 162.410,103.167 162.383 C 103.167 162.257,103.022 162.383,102.409 163.042 M99.324 165.958 L 98.750 166.583 99.375 166.009 C 99.957 165.474,100.077 165.333,99.949 165.333 C 99.922 165.333,99.640 165.615,99.324 165.958 M300.500 165.917 C 300.811 166.237,301.103 166.500,301.149 166.500 C 301.195 166.500,300.978 166.237,300.667 165.917 C 300.356 165.596,300.064 165.333,300.018 165.333 C 299.972 165.333,300.189 165.596,300.500 165.917 M96.167 169.250 C 95.762 169.662,95.468 170.000,95.514 170.000 C 95.560 170.000,95.928 169.662,96.333 169.250 C 96.738 168.837,97.032 168.500,96.986 168.500 C 96.940 168.500,96.572 168.837,96.167 169.250 M303.660 169.208 C 304.350 169.944,304.500 170.077,304.500 169.951 C 304.500 169.925,304.144 169.568,303.708 169.160 L 302.917 168.417 303.660 169.208 M110.575 170.542 L 109.917 171.250 110.625 170.591 C 111.015 170.229,111.333 169.910,111.333 169.883 C 111.333 169.757,111.188 169.883,110.575 170.542 M267.000 170.052 C 267.000 170.081,267.244 170.325,267.542 170.594 L 268.083 171.083 267.594 170.542 C 267.138 170.037,267.000 169.923,267.000 170.052 M289.333 170.583 C 289.644 170.904,289.936 171.167,289.982 171.167 C 290.028 171.167,289.811 170.904,289.500 170.583 C 289.189 170.262,288.897 170.000,288.851 170.000 C 288.805 170.000,289.022 170.262,289.333 170.583 M94.581 200.000 C 94.581 215.996,94.601 222.540,94.625 214.542 C 94.649 206.544,94.649 193.456,94.625 185.458 C 94.601 177.460,94.581 184.004,94.581 200.000 M305.415 200.000 C 305.415 215.996,305.434 222.540,305.458 214.542 C 305.482 206.544,305.482 193.456,305.458 185.458 C 305.434 177.460,305.415 184.004,305.415 200.000 M107.575 173.375 L 106.917 174.083 107.625 173.425 C 108.015 173.062,108.333 172.743,108.333 172.716 C 108.333 172.590,108.188 172.716,107.575 173.375 M292.250 173.333 C 292.608 173.700,292.938 174.000,292.984 174.000 C 293.030 174.000,292.775 173.700,292.417 173.333 C 292.059 172.967,291.728 172.667,291.682 172.667 C 291.637 172.667,291.892 172.967,292.250 173.333 M138.240 173.542 L 137.750 174.083 138.292 173.594 C 138.590 173.325,138.833 173.081,138.833 173.052 C 138.833 172.923,138.696 173.037,138.240 173.542 M105.748 200.000 C 105.748 213.521,105.768 219.052,105.792 212.292 C 105.816 205.531,105.816 194.469,105.792 187.708 C 105.768 180.948,105.748 186.479,105.748 200.000 M294.248 200.000 C 294.248 213.521,294.268 219.052,294.292 212.292 C 294.316 205.531,294.316 194.469,294.292 187.708 C 294.268 180.948,294.248 186.479,294.248 200.000 M148.742 184.875 L 148.083 185.583 148.792 184.925 C 149.450 184.312,149.577 184.167,149.450 184.167 C 149.423 184.167,149.105 184.485,148.742 184.875 M265.991 184.792 L 265.417 185.417 266.042 184.842 C 266.623 184.308,266.743 184.167,266.616 184.167 C 266.588 184.167,266.307 184.448,265.991 184.792 M262.742 187.708 L 262.083 188.417 262.792 187.758 C 263.450 187.145,263.577 187.000,263.450 187.000 C 263.423 187.000,263.105 187.319,262.742 187.708 M257.406 188.542 L 256.917 189.083 257.458 188.594 C 257.963 188.138,258.077 188.000,257.948 188.000 C 257.919 188.000,257.675 188.244,257.406 188.542 M126.958 188.290 C 127.440 188.323,128.227 188.323,128.708 188.290 C 129.190 188.256,128.796 188.228,127.833 188.228 C 126.871 188.228,126.477 188.256,126.958 188.290 M274.131 188.290 C 274.615 188.324,275.365 188.323,275.797 188.289 C 276.230 188.255,275.833 188.227,274.917 188.228 C 274.000 188.228,273.646 188.256,274.131 188.290 M263.658 193.458 L 263.083 194.083 263.708 193.509 C 264.290 192.974,264.410 192.833,264.283 192.833 C 264.255 192.833,263.974 193.115,263.658 193.458 M255.552 194.083 C 255.553 194.633,255.584 194.838,255.621 194.539 C 255.658 194.239,255.657 193.789,255.619 193.539 C 255.581 193.288,255.551 193.533,255.552 194.083 M147.205 194.500 C 147.205 194.821,147.240 194.952,147.282 194.792 C 147.323 194.631,147.323 194.369,147.282 194.208 C 147.240 194.048,147.205 194.179,147.205 194.500 M147.705 195.333 C 147.705 195.654,147.740 195.785,147.782 195.625 C 147.823 195.465,147.823 195.202,147.782 195.042 C 147.740 194.881,147.705 195.012,147.705 195.333 M221.039 204.208 L 221.000 210.167 227.749 210.167 L 234.498 210.167 234.542 226.417 L 234.586 242.667 234.585 226.375 L 234.583 210.083 227.877 210.040 L 221.171 209.996 221.125 204.123 L 221.079 198.250 221.039 204.208 M229.375 198.458 C 230.269 198.488,231.731 198.488,232.625 198.458 C 233.519 198.428,232.787 198.403,231.000 198.403 C 229.213 198.403,228.481 198.428,229.375 198.458 M244.463 198.622 C 244.855 198.657,245.455 198.657,245.796 198.621 C 246.137 198.585,245.817 198.557,245.083 198.557 C 244.350 198.558,244.071 198.587,244.463 198.622 M145.491 199.958 L 144.917 200.583 145.542 200.009 C 146.123 199.474,146.243 199.333,146.116 199.333 C 146.088 199.333,145.807 199.615,145.491 199.958 M134.875 203.448 C 135.035 203.490,135.298 203.490,135.458 203.448 C 135.619 203.406,135.487 203.372,135.167 203.372 C 134.846 203.372,134.715 203.406,134.875 203.448 M267.375 203.448 C 267.535 203.490,267.798 203.490,267.958 203.448 C 268.119 203.406,267.987 203.372,267.667 203.372 C 267.346 203.372,267.215 203.406,267.375 203.448 M167.167 230.117 C 167.121 243.793,167.140 254.927,167.209 254.858 C 167.278 254.789,167.315 243.599,167.292 229.991 L 167.250 205.250 167.167 230.117 M271.221 207.750 C 271.222 208.392,271.252 208.634,271.288 208.288 C 271.324 207.942,271.324 207.417,271.287 207.121 C 271.250 206.825,271.221 207.108,271.221 207.750 M131.556 210.500 C 131.556 211.188,131.585 211.469,131.621 211.125 C 131.657 210.781,131.657 210.219,131.621 209.875 C 131.585 209.531,131.556 209.813,131.556 210.500 M272.552 210.583 C 272.553 211.133,272.584 211.338,272.621 211.039 C 272.658 210.739,272.657 210.289,272.619 210.039 C 272.581 209.788,272.551 210.033,272.552 210.583 M130.231 214.167 C 130.231 215.313,130.258 215.781,130.290 215.208 C 130.323 214.635,130.323 213.698,130.290 213.125 C 130.258 212.552,130.231 213.021,130.231 214.167 M130.235 221.250 C 130.235 222.808,130.260 223.468,130.291 222.717 C 130.321 221.965,130.321 220.690,130.291 219.883 C 130.260 219.077,130.235 219.692,130.235 221.250 M131.721 219.917 C 131.722 220.558,131.752 220.800,131.788 220.455 C 131.824 220.109,131.824 219.584,131.787 219.288 C 131.750 218.992,131.721 219.275,131.721 219.917 M186.914 240.000 C 186.914 251.688,186.934 256.469,186.958 250.625 C 186.983 244.781,186.983 235.219,186.958 229.375 C 186.934 223.531,186.914 228.313,186.914 240.000 M270.898 224.083 C 270.898 225.275,270.925 225.741,270.957 225.118 C 270.989 224.496,270.989 223.521,270.957 222.951 C 270.924 222.382,270.898 222.892,270.898 224.083 M107.583 226.667 C 107.941 227.033,108.272 227.333,108.318 227.333 C 108.363 227.333,108.108 227.033,107.750 226.667 C 107.392 226.300,107.062 226.000,107.016 226.000 C 106.970 226.000,107.225 226.300,107.583 226.667 M131.885 227.583 C 131.886 228.133,131.917 228.338,131.954 228.039 C 131.991 227.739,131.990 227.289,131.952 227.039 C 131.914 226.788,131.884 227.033,131.885 227.583 M272.404 230.083 C 272.404 232.008,272.428 232.773,272.458 231.783 C 272.487 230.792,272.487 229.217,272.458 228.283 C 272.428 227.348,272.404 228.158,272.404 230.083 M110.583 229.500 C 110.941 229.867,111.272 230.167,111.318 230.167 C 111.363 230.167,111.108 229.867,110.750 229.500 C 110.392 229.133,110.062 228.833,110.016 228.833 C 109.970 228.833,110.225 229.133,110.583 229.500 M96.160 230.708 C 96.850 231.444,97.000 231.577,97.000 231.451 C 97.000 231.425,96.644 231.068,96.208 230.660 L 95.417 229.917 96.160 230.708 M303.667 230.750 C 303.262 231.162,302.968 231.500,303.014 231.500 C 303.060 231.500,303.428 231.162,303.833 230.750 C 304.238 230.338,304.532 230.000,304.486 230.000 C 304.440 230.000,304.072 230.338,303.667 230.750 M300.500 234.083 C 299.817 234.771,299.296 235.333,299.342 235.333 C 299.388 235.333,299.984 234.771,300.667 234.083 C 301.350 233.396,301.871 232.833,301.825 232.833 C 301.779 232.833,301.183 233.396,300.500 234.083 M130.372 233.500 C 130.372 233.821,130.406 233.952,130.448 233.792 C 130.490 233.631,130.490 233.369,130.448 233.208 C 130.406 233.048,130.372 233.179,130.372 233.500 M99.333 234.083 C 99.644 234.404,99.936 234.667,99.982 234.667 C 100.028 234.667,99.811 234.404,99.500 234.083 C 99.189 233.762,98.897 233.500,98.851 233.500 C 98.805 233.500,99.022 233.762,99.333 234.083 M102.417 237.000 C 102.775 237.367,103.105 237.667,103.151 237.667 C 103.197 237.667,102.941 237.367,102.583 237.000 C 102.225 236.633,101.895 236.333,101.849 236.333 C 101.803 236.333,102.059 236.633,102.417 237.000 M135.295 237.121 C 135.594 237.158,136.044 237.157,136.295 237.119 C 136.545 237.081,136.300 237.051,135.750 237.052 C 135.200 237.053,134.995 237.084,135.295 237.121 M266.628 237.121 C 266.928 237.158,267.378 237.157,267.628 237.119 C 267.878 237.081,267.633 237.051,267.083 237.052 C 266.533 237.053,266.328 237.084,266.628 237.121 M94.667 296.362 C 94.667 296.438,94.892 296.500,95.167 296.500 C 95.442 296.500,95.667 296.471,95.667 296.436 C 95.667 296.400,95.442 296.338,95.167 296.298 C 94.892 296.257,94.667 296.286,94.667 296.362 M97.792 296.287 C 98.090 296.324,98.577 296.324,98.875 296.287 C 99.173 296.250,98.929 296.220,98.333 296.220 C 97.737 296.220,97.494 296.250,97.792 296.287 M101.542 296.282 C 101.702 296.323,101.965 296.323,102.125 296.282 C 102.285 296.240,102.154 296.205,101.833 296.205 C 101.513 296.205,101.381 296.240,101.542 296.282 M170.976 296.376 C 171.060 296.460,171.306 296.500,171.522 296.466 C 171.856 296.414,171.833 296.390,171.370 296.314 C 171.039 296.259,170.883 296.283,170.976 296.376 M175.050 296.291 C 175.949 296.321,177.374 296.321,178.217 296.291 C 179.060 296.261,178.325 296.236,176.583 296.236 C 174.842 296.236,174.152 296.261,175.050 296.291 M266.167 296.362 C 266.167 296.438,266.392 296.500,266.667 296.500 C 266.942 296.500,267.167 296.471,267.167 296.436 C 267.167 296.400,266.942 296.338,266.667 296.298 C 266.392 296.257,266.167 296.286,266.167 296.362 M271.417 296.333 L 270.917 296.461 271.458 296.480 C 271.756 296.491,272.000 296.425,272.000 296.333 C 272.000 296.242,271.981 296.176,271.958 296.186 C 271.935 296.197,271.692 296.263,271.417 296.333 M287.809 296.376 C 287.893 296.460,288.139 296.500,288.356 296.466 C 288.689 296.414,288.666 296.390,288.203 296.314 C 287.872 296.259,287.716 296.283,287.809 296.376 M290.792 296.287 C 291.090 296.324,291.577 296.324,291.875 296.287 C 292.173 296.250,291.929 296.220,291.333 296.220 C 290.737 296.220,290.494 296.250,290.792 296.287 M296.542 296.282 C 296.702 296.323,296.965 296.323,297.125 296.282 C 297.285 296.240,297.154 296.205,296.833 296.205 C 296.512 296.205,296.381 296.240,296.542 296.282 M154.792 296.784 C 154.998 296.824,155.335 296.824,155.542 296.784 C 155.748 296.745,155.579 296.712,155.167 296.712 C 154.754 296.712,154.585 296.745,154.792 296.784 M293.125 297.123 C 293.606 297.157,294.394 297.157,294.875 297.123 C 295.356 297.089,294.962 297.062,294.000 297.062 C 293.037 297.062,292.644 297.089,293.125 297.123 M174.901 299.750 C 174.901 301.217,174.927 301.794,174.957 301.034 C 174.988 300.273,174.988 299.073,174.957 298.367 C 174.926 297.661,174.901 298.283,174.901 299.750 M291.743 297.375 C 291.699 297.490,291.682 300.472,291.706 304.000 L 291.750 310.417 291.833 303.792 C 291.879 300.148,291.896 297.167,291.870 297.167 C 291.844 297.167,291.787 297.261,291.743 297.375 M98.550 298.167 C 98.550 298.671,98.581 298.877,98.619 298.625 C 98.658 298.373,98.658 297.960,98.619 297.708 C 98.581 297.456,98.550 297.662,98.550 298.167 M210.658 298.458 L 210.083 299.083 210.708 298.509 C 211.052 298.193,211.333 297.912,211.333 297.884 C 211.333 297.757,211.192 297.877,210.658 298.458 M252.000 298.052 C 252.000 298.081,252.244 298.325,252.542 298.594 L 253.083 299.083 252.594 298.542 C 252.138 298.037,252.000 297.923,252.000 298.052 M172.879 299.500 C 172.879 299.912,172.911 300.081,172.951 299.875 C 172.991 299.669,172.991 299.331,172.951 299.125 C 172.911 298.919,172.879 299.087,172.879 299.500 M138.221 304.583 C 138.222 305.225,138.252 305.467,138.288 305.121 C 138.324 304.775,138.324 304.250,138.287 303.955 C 138.250 303.659,138.221 303.942,138.221 304.583 M305.552 304.917 C 305.553 305.467,305.584 305.672,305.621 305.372 C 305.658 305.072,305.657 304.622,305.619 304.372 C 305.581 304.122,305.551 304.367,305.552 304.917 M175.294 304.951 C 175.501 304.991,175.801 304.990,175.960 304.948 C 176.120 304.906,175.950 304.874,175.583 304.875 C 175.217 304.877,175.086 304.911,175.294 304.951 M220.625 305.122 C 221.015 305.157,221.652 305.157,222.042 305.122 C 222.431 305.087,222.112 305.058,221.333 305.058 C 220.554 305.058,220.235 305.087,220.625 305.122 M223.583 305.100 C 224.350 305.224,225.630 305.241,225.558 305.125 C 225.515 305.056,224.979 305.010,224.365 305.023 C 223.752 305.035,223.400 305.070,223.583 305.100 M100.042 305.615 C 100.202 305.657,100.465 305.657,100.625 305.615 C 100.785 305.573,100.654 305.539,100.333 305.539 C 100.013 305.539,99.881 305.573,100.042 305.615 M174.902 308.917 C 174.901 310.475,174.926 311.135,174.957 310.383 C 174.988 309.631,174.988 308.356,174.958 307.550 C 174.927 306.743,174.902 307.358,174.902 308.917 M99.375 306.456 C 99.810 306.490,100.523 306.490,100.958 306.456 C 101.394 306.422,101.037 306.393,100.167 306.393 C 99.296 306.393,98.940 306.422,99.375 306.456 M221.894 308.083 C 221.895 309.000,221.923 309.354,221.956 308.869 C 221.990 308.385,221.990 307.635,221.956 307.203 C 221.921 306.770,221.894 307.167,221.894 308.083 M172.890 308.250 C 172.891 308.983,172.920 309.263,172.956 308.871 C 172.991 308.479,172.990 307.879,172.954 307.537 C 172.919 307.196,172.890 307.517,172.890 308.250 M98.553 309.167 C 98.553 309.762,98.584 310.006,98.621 309.708 C 98.658 309.410,98.658 308.923,98.621 308.625 C 98.584 308.327,98.553 308.571,98.553 309.167 M289.705 310.167 C 289.705 310.487,289.740 310.619,289.782 310.458 C 289.823 310.298,289.823 310.035,289.782 309.875 C 289.740 309.715,289.705 309.846,289.705 310.167 M150.293 310.583 C 150.336 310.813,150.401 311.000,150.436 311.000 C 150.471 311.000,150.500 310.813,150.500 310.583 C 150.500 310.354,150.435 310.167,150.356 310.167 C 150.277 310.167,150.249 310.354,150.293 310.583 M268.050 311.000 C 268.050 311.504,268.081 311.710,268.119 311.458 C 268.158 311.206,268.158 310.794,268.119 310.542 C 268.081 310.290,268.050 310.496,268.050 311.000 M270.209 310.750 C 270.211 311.117,270.245 311.247,270.285 311.040 C 270.324 310.832,270.323 310.532,270.281 310.373 C 270.239 310.214,270.207 310.383,270.209 310.750 M108.417 311.833 C 108.868 312.292,109.275 312.667,109.321 312.667 C 109.367 312.667,109.035 312.292,108.583 311.833 C 108.132 311.375,107.725 311.000,107.679 311.000 C 107.633 311.000,107.965 311.375,108.417 311.833 M133.740 311.542 L 133.250 312.083 133.792 311.594 C 134.090 311.325,134.333 311.081,134.333 311.052 C 134.333 310.923,134.196 311.037,133.740 311.542 M176.208 312.948 C 176.369 312.990,176.631 312.990,176.792 312.948 C 176.952 312.906,176.821 312.872,176.500 312.872 C 176.179 312.872,176.048 312.906,176.208 312.948 M178.294 312.951 C 178.501 312.991,178.801 312.990,178.960 312.948 C 179.120 312.906,178.950 312.874,178.583 312.875 C 178.217 312.877,178.086 312.911,178.294 312.951 M295.375 313.286 C 295.627 313.324,296.040 313.324,296.292 313.286 C 296.544 313.248,296.337 313.217,295.833 313.217 C 295.329 313.217,295.123 313.248,295.375 313.286 M110.208 313.955 C 110.552 313.991,111.115 313.991,111.458 313.955 C 111.802 313.919,111.521 313.889,110.833 313.889 C 110.146 313.889,109.865 313.919,110.208 313.955 M176.294 313.951 C 176.501 313.991,176.801 313.990,176.960 313.948 C 177.120 313.906,176.950 313.874,176.583 313.875 C 176.217 313.877,176.086 313.911,176.294 313.951 M272.375 313.948 C 272.535 313.990,272.798 313.990,272.958 313.948 C 273.119 313.906,272.987 313.872,272.667 313.872 C 272.346 313.872,272.215 313.906,272.375 313.948 M294.375 314.115 C 294.535 314.157,294.798 314.157,294.958 314.115 C 295.119 314.073,294.987 314.039,294.667 314.039 C 294.346 314.039,294.215 314.073,294.375 314.115 M128.375 314.286 C 128.627 314.324,129.040 314.324,129.292 314.286 C 129.544 314.248,129.337 314.217,128.833 314.217 C 128.329 314.217,128.123 314.248,128.375 314.286 M153.125 314.284 C 153.331 314.324,153.669 314.324,153.875 314.284 C 154.081 314.245,153.912 314.212,153.500 314.212 C 153.087 314.212,152.919 314.245,153.125 314.284 M218.128 314.287 C 218.428 314.325,218.878 314.324,219.128 314.286 C 219.378 314.248,219.133 314.217,218.583 314.218 C 218.033 314.219,217.828 314.250,218.128 314.287 M245.044 314.286 C 245.297 314.325,245.672 314.324,245.877 314.284 C 246.082 314.244,245.875 314.213,245.417 314.214 C 244.958 314.216,244.791 314.248,245.044 314.286  M -25 0 L -5 0 L -5 20 L -25 20 Z M 405 0 L 425 0 L 425 20 L 405 20 Z" stroke="none" fill="#5b4445" fill-rule="evenodd" transform="translate(950,0)"></path><path id="path3" d="M198.581 157.750 C 198.581 170.400,198.601 175.600,198.625 169.305 C 198.649 163.010,198.649 152.660,198.625 146.305 C 198.601 139.950,198.581 145.100,198.581 157.750 M246.246 161.500 C 246.246 168.237,246.266 170.994,246.292 167.625 C 246.317 164.256,246.317 158.744,246.292 155.375 C 246.266 152.006,246.246 154.762,246.246 161.500 M186.578 161.917 C 186.578 167.050,186.599 169.174,186.625 166.637 C 186.651 164.100,186.651 159.900,186.625 157.304 C 186.599 154.707,186.578 156.783,186.578 161.917 M155.565 158.167 C 155.565 159.404,155.592 159.910,155.624 159.292 C 155.656 158.673,155.656 157.660,155.624 157.042 C 155.592 156.423,155.565 156.929,155.565 158.167 M167.553 160.000 C 167.553 160.596,167.584 160.840,167.621 160.542 C 167.658 160.244,167.658 159.756,167.621 159.458 C 167.584 159.160,167.553 159.404,167.553 160.000 M299.167 164.750 C 299.478 165.071,299.770 165.333,299.815 165.333 C 299.861 165.333,299.644 165.071,299.333 164.750 C 299.022 164.429,298.730 164.167,298.685 164.167 C 298.639 164.167,298.856 164.429,299.167 164.750 M98.073 167.375 L 97.583 167.917 98.125 167.427 C 98.423 167.158,98.667 166.914,98.667 166.885 C 98.667 166.757,98.529 166.870,98.073 167.375 M301.333 166.885 C 301.333 166.914,301.577 167.158,301.875 167.427 L 302.417 167.917 301.927 167.375 C 301.471 166.870,301.333 166.757,301.333 166.885 M155.572 171.083 C 155.572 173.283,155.596 174.160,155.625 173.032 C 155.653 171.904,155.653 170.104,155.624 169.032 C 155.595 167.960,155.572 168.883,155.572 171.083 M95.242 170.375 L 94.583 171.083 95.292 170.425 C 95.681 170.062,96.000 169.743,96.000 169.716 C 96.000 169.590,95.855 169.716,95.242 170.375 M304.583 170.333 C 304.941 170.700,305.272 171.000,305.318 171.000 C 305.363 171.000,305.108 170.700,304.750 170.333 C 304.392 169.967,304.062 169.667,304.016 169.667 C 303.970 169.667,304.225 169.967,304.583 170.333 M109.658 171.292 L 109.083 171.917 109.708 171.342 C 110.290 170.808,110.410 170.667,110.283 170.667 C 110.255 170.667,109.974 170.948,109.658 171.292 M290.167 171.250 C 290.478 171.571,290.770 171.833,290.815 171.833 C 290.861 171.833,290.644 171.571,290.333 171.250 C 290.022 170.929,289.730 170.667,289.685 170.667 C 289.639 170.667,289.856 170.929,290.167 171.250 M167.580 188.333 L 167.583 194.583 172.322 194.628 C 174.929 194.652,177.119 194.615,177.189 194.544 C 177.260 194.474,175.147 194.438,172.494 194.463 L 167.671 194.510 167.624 188.297 L 167.577 182.083 167.580 188.333 M136.667 191.052 C 136.667 191.081,136.910 191.325,137.208 191.594 L 137.750 192.083 137.260 191.542 C 136.804 191.037,136.667 190.923,136.667 191.052 M222.801 198.458 C 223.745 198.488,225.245 198.487,226.134 198.457 C 227.023 198.428,226.250 198.403,224.417 198.403 C 222.583 198.404,221.856 198.428,222.801 198.458 M241.464 198.623 C 241.948 198.657,242.698 198.656,243.131 198.622 C 243.563 198.588,243.167 198.560,242.250 198.561 C 241.333 198.561,240.980 198.589,241.464 198.623 M246.248 224.583 C 246.248 238.883,246.268 244.709,246.292 237.529 C 246.316 230.348,246.316 218.648,246.292 211.529 C 246.268 204.409,246.248 210.283,246.248 224.583 M272.552 208.583 C 272.553 209.133,272.584 209.338,272.621 209.039 C 272.658 208.739,272.657 208.289,272.619 208.039 C 272.581 207.788,272.551 208.033,272.552 208.583 M130.220 211.167 C 130.220 211.762,130.250 212.006,130.287 211.708 C 130.324 211.410,130.324 210.923,130.287 210.625 C 130.250 210.327,130.220 210.571,130.220 211.167 M131.548 214.583 C 131.549 215.042,131.581 215.209,131.620 214.956 C 131.658 214.703,131.657 214.328,131.617 214.123 C 131.578 213.918,131.546 214.125,131.548 214.583 M198.459 239.583 C 198.436 253.013,198.473 264.000,198.542 264.000 C 198.610 264.000,198.667 253.012,198.667 239.583 C 198.667 226.154,198.630 215.167,198.584 215.167 C 198.539 215.167,198.483 226.154,198.459 239.583 M272.405 222.750 C 272.405 224.858,272.429 225.698,272.458 224.616 C 272.487 223.533,272.487 221.808,272.458 220.782 C 272.428 219.756,272.405 220.642,272.405 222.750 M270.885 227.083 C 270.886 227.633,270.917 227.838,270.954 227.539 C 270.991 227.239,270.990 226.789,270.952 226.539 C 270.914 226.288,270.884 226.533,270.885 227.083 M130.397 229.917 C 130.397 231.017,130.424 231.445,130.457 230.868 C 130.490 230.292,130.489 229.392,130.456 228.868 C 130.423 228.345,130.397 228.817,130.397 229.917 M109.667 228.750 C 109.978 229.071,110.270 229.333,110.315 229.333 C 110.361 229.333,110.144 229.071,109.833 228.750 C 109.522 228.429,109.230 228.167,109.185 228.167 C 109.139 228.167,109.356 228.429,109.667 228.750 M131.885 229.417 C 131.886 229.967,131.917 230.172,131.954 229.872 C 131.991 229.572,131.990 229.122,131.952 228.872 C 131.914 228.622,131.884 228.867,131.885 229.417 M95.250 229.667 C 95.608 230.033,95.938 230.333,95.984 230.333 C 96.030 230.333,95.775 230.033,95.417 229.667 C 95.059 229.300,94.728 229.000,94.682 229.000 C 94.637 229.000,94.892 229.300,95.250 229.667 M304.658 229.625 L 304.083 230.250 304.708 229.676 C 305.290 229.141,305.410 229.000,305.283 229.000 C 305.255 229.000,304.974 229.281,304.658 229.625 M97.667 232.219 C 97.667 232.248,97.910 232.491,98.208 232.760 L 98.750 233.250 98.260 232.708 C 97.804 232.203,97.667 232.090,97.667 232.219 M128.708 295.953 C 128.960 295.991,129.373 295.991,129.625 295.953 C 129.877 295.915,129.671 295.883,129.167 295.883 C 128.662 295.883,128.456 295.915,128.708 295.953 M155.294 295.951 C 155.501 295.991,155.801 295.990,155.960 295.948 C 156.120 295.906,155.950 295.874,155.583 295.875 C 155.217 295.877,155.086 295.911,155.294 295.951 M217.708 295.953 C 217.960 295.991,218.373 295.991,218.625 295.953 C 218.877 295.915,218.671 295.883,218.167 295.883 C 217.662 295.883,217.456 295.915,217.708 295.953 M245.375 295.953 C 245.627 295.991,246.040 295.991,246.292 295.953 C 246.544 295.915,246.338 295.883,245.833 295.883 C 245.329 295.883,245.123 295.915,245.375 295.953 M95.961 296.287 C 96.261 296.325,96.711 296.324,96.961 296.286 C 97.212 296.248,96.967 296.217,96.417 296.218 C 95.867 296.219,95.662 296.250,95.961 296.287 M267.074 296.318 C 267.125 296.401,267.317 296.430,267.500 296.382 C 267.959 296.262,267.918 296.167,267.407 296.167 C 267.172 296.167,267.022 296.235,267.074 296.318 M288.559 296.281 C 288.679 296.402,290.189 296.367,290.315 296.240 C 290.356 296.200,289.951 296.167,289.417 296.167 C 288.882 296.167,288.496 296.218,288.559 296.281 M216.042 296.782 C 216.202 296.823,216.465 296.823,216.625 296.782 C 216.785 296.740,216.654 296.705,216.333 296.705 C 216.012 296.705,215.881 296.740,216.042 296.782 M218.460 296.785 C 218.668 296.824,218.968 296.823,219.127 296.781 C 219.286 296.739,219.117 296.707,218.750 296.709 C 218.383 296.711,218.253 296.745,218.460 296.785 M293.461 296.954 C 293.761 296.991,294.211 296.990,294.461 296.952 C 294.712 296.914,294.467 296.884,293.917 296.885 C 293.367 296.886,293.162 296.917,293.461 296.954 M270.048 298.583 C 270.049 299.042,270.081 299.209,270.120 298.956 C 270.158 298.703,270.157 298.328,270.117 298.123 C 270.078 297.918,270.046 298.125,270.048 298.583 M158.336 298.292 C 158.343 298.657,158.662 298.899,158.664 298.542 C 158.666 298.335,158.592 298.167,158.500 298.167 C 158.408 298.167,158.334 298.223,158.336 298.292 M96.712 299.667 C 96.712 300.079,96.745 300.248,96.784 300.042 C 96.824 299.835,96.824 299.498,96.784 299.292 C 96.745 299.085,96.712 299.254,96.712 299.667 M106.209 300.417 C 106.211 300.783,106.245 300.914,106.285 300.706 C 106.324 300.499,106.323 300.199,106.281 300.040 C 106.239 299.880,106.207 300.050,106.209 300.417 M104.379 301.333 C 104.379 301.746,104.411 301.915,104.451 301.708 C 104.491 301.502,104.491 301.165,104.451 300.958 C 104.411 300.752,104.379 300.921,104.379 301.333 M289.730 302.583 C 289.731 303.683,289.758 304.112,289.790 303.535 C 289.823 302.959,289.823 302.059,289.790 301.535 C 289.757 301.012,289.730 301.483,289.730 302.583 M98.562 303.500 C 98.562 304.462,98.589 304.856,98.623 304.375 C 98.657 303.894,98.657 303.106,98.623 302.625 C 98.589 302.144,98.562 302.537,98.562 303.500 M172.892 304.417 C 172.892 305.242,172.920 305.600,172.955 305.213 C 172.990 304.827,172.990 304.152,172.956 303.713 C 172.922 303.275,172.893 303.592,172.892 304.417 M305.387 304.333 C 305.387 304.929,305.417 305.173,305.454 304.875 C 305.491 304.577,305.491 304.090,305.454 303.792 C 305.417 303.494,305.387 303.737,305.387 304.333 M210.209 304.250 C 210.211 304.617,210.245 304.747,210.285 304.540 C 210.324 304.332,210.323 304.032,210.281 303.873 C 210.239 303.714,210.207 303.883,210.209 304.250 M254.717 304.667 C 254.717 305.171,254.748 305.377,254.786 305.125 C 254.824 304.873,254.824 304.460,254.786 304.208 C 254.748 303.956,254.717 304.162,254.717 304.667 M175.208 304.115 C 175.369 304.157,175.631 304.157,175.792 304.115 C 175.952 304.073,175.821 304.039,175.500 304.039 C 175.179 304.039,175.048 304.073,175.208 304.115 M208.214 304.917 C 208.216 305.375,208.248 305.543,208.286 305.289 C 208.325 305.036,208.324 304.661,208.284 304.456 C 208.244 304.251,208.213 304.458,208.214 304.917 M252.542 304.750 C 252.544 305.117,252.578 305.247,252.618 305.040 C 252.658 304.832,252.656 304.532,252.615 304.373 C 252.573 304.214,252.540 304.383,252.542 304.750 M236.372 305.000 C 236.372 305.321,236.406 305.452,236.448 305.292 C 236.490 305.131,236.490 304.869,236.448 304.708 C 236.406 304.548,236.372 304.679,236.372 305.000 M289.714 306.083 C 289.716 306.542,289.748 306.709,289.786 306.456 C 289.825 306.203,289.824 305.828,289.784 305.623 C 289.744 305.418,289.713 305.625,289.714 306.083 M96.727 308.500 C 96.727 309.371,96.755 309.727,96.789 309.292 C 96.824 308.856,96.824 308.144,96.789 307.708 C 96.755 307.273,96.727 307.629,96.727 308.500 M270.060 309.167 C 270.060 310.037,270.088 310.394,270.123 309.958 C 270.157 309.523,270.157 308.810,270.123 308.375 C 270.088 307.940,270.060 308.296,270.060 309.167 M223.889 311.000 C 223.889 311.688,223.919 311.969,223.955 311.625 C 223.991 311.281,223.991 310.719,223.955 310.375 C 223.919 310.031,223.889 310.313,223.889 311.000 M212.167 310.219 C 212.167 310.248,212.410 310.491,212.708 310.760 L 213.250 311.250 212.760 310.708 C 212.304 310.203,212.167 310.090,212.167 310.219 M98.539 310.833 C 98.539 311.154,98.573 311.285,98.615 311.125 C 98.657 310.965,98.657 310.702,98.615 310.542 C 98.573 310.381,98.539 310.512,98.539 310.833 M302.740 311.542 L 302.250 312.083 302.792 311.594 C 303.297 311.138,303.410 311.000,303.281 311.000 C 303.252 311.000,303.009 311.244,302.740 311.542 M276.959 311.583 C 276.915 311.813,276.944 312.000,277.023 312.000 C 277.102 312.000,277.167 311.813,277.167 311.583 C 277.167 311.354,277.138 311.167,277.103 311.167 C 277.068 311.167,277.003 311.354,276.959 311.583 M176.955 313.120 C 177.250 313.157,177.775 313.158,178.121 313.122 C 178.467 313.086,178.225 313.055,177.583 313.055 C 176.942 313.054,176.659 313.083,176.955 313.120 M272.708 313.123 C 273.144 313.157,273.856 313.157,274.292 313.123 C 274.727 313.088,274.371 313.060,273.500 313.060 C 272.629 313.060,272.273 313.088,272.708 313.123 M269.294 313.785 C 269.501 313.824,269.801 313.823,269.960 313.781 C 270.120 313.739,269.950 313.707,269.583 313.709 C 269.217 313.711,269.086 313.745,269.294 313.785 M178.875 313.953 C 179.127 313.991,179.540 313.991,179.792 313.953 C 180.044 313.915,179.838 313.883,179.333 313.883 C 178.829 313.883,178.623 313.915,178.875 313.953 M274.877 313.953 C 275.131 313.991,275.506 313.990,275.711 313.951 C 275.916 313.911,275.708 313.880,275.250 313.881 C 274.792 313.882,274.624 313.915,274.877 313.953 M153.461 314.121 C 153.761 314.158,154.211 314.157,154.461 314.119 C 154.712 314.081,154.467 314.051,153.917 314.052 C 153.367 314.053,153.162 314.084,153.461 314.121 M246.208 314.115 C 246.369 314.157,246.631 314.157,246.792 314.115 C 246.952 314.073,246.821 314.039,246.500 314.039 C 246.179 314.039,246.048 314.073,246.208 314.115  M -25 0 L -5 0 L -5 20 L -25 20 Z M 405 0 L 425 0 L 425 20 L 405 20 Z" stroke="none" fill="#845c64" fill-rule="evenodd" transform="translate(30,460)"></path><path id="path4" d="M155.571 152.417 C 155.571 154.433,155.595 155.235,155.625 154.199 C 155.654 153.163,155.654 151.513,155.624 150.532 C 155.595 149.552,155.571 150.400,155.571 152.417 M155.582 212.500 C 155.582 233.171,155.601 241.627,155.625 231.292 C 155.649 220.956,155.649 204.044,155.625 193.708 C 155.601 183.373,155.582 191.829,155.582 212.500 M271.220 209.833 C 271.220 210.429,271.250 210.673,271.287 210.375 C 271.324 210.077,271.324 209.590,271.287 209.292 C 271.250 208.994,271.220 209.237,271.220 209.833 M131.555 212.750 C 131.555 213.392,131.586 213.634,131.622 213.288 C 131.658 212.942,131.657 212.417,131.620 212.121 C 131.583 211.825,131.554 212.108,131.555 212.750 M271.039 219.667 C 271.039 219.987,271.073 220.119,271.115 219.958 C 271.157 219.798,271.157 219.535,271.115 219.375 C 271.073 219.215,271.039 219.346,271.039 219.667 M130.375 232.417 C 130.377 232.783,130.411 232.914,130.451 232.706 C 130.491 232.499,130.490 232.199,130.448 232.040 C 130.406 231.880,130.374 232.050,130.375 232.417 M99.792 296.287 C 100.090 296.324,100.577 296.324,100.875 296.287 C 101.173 296.250,100.929 296.220,100.333 296.220 C 99.737 296.220,99.494 296.250,99.792 296.287 M171.000 296.231 C 171.000 296.267,171.225 296.329,171.500 296.369 C 171.775 296.409,172.000 296.380,172.000 296.304 C 172.000 296.229,171.775 296.167,171.500 296.167 C 171.225 296.167,171.000 296.196,171.000 296.231 M270.629 296.306 C 270.829 296.433,271.833 296.370,271.833 296.231 C 271.833 296.196,271.515 296.168,271.125 296.169 C 270.700 296.171,270.502 296.226,270.629 296.306 M293.292 296.290 C 293.865 296.323,294.802 296.323,295.375 296.290 C 295.948 296.258,295.479 296.231,294.333 296.231 C 293.188 296.231,292.719 296.258,293.292 296.290 M217.125 296.784 C 217.331 296.824,217.669 296.824,217.875 296.784 C 218.081 296.745,217.912 296.712,217.500 296.712 C 217.088 296.712,216.919 296.745,217.125 296.784 M289.724 299.417 C 289.724 300.150,289.754 300.429,289.789 300.037 C 289.824 299.645,289.824 299.045,289.788 298.704 C 289.752 298.363,289.723 298.683,289.724 299.417 M98.559 300.417 C 98.559 301.242,98.587 301.600,98.622 301.213 C 98.657 300.827,98.657 300.152,98.623 299.713 C 98.588 299.275,98.560 299.592,98.559 300.417 M172.892 301.583 C 172.892 302.408,172.920 302.767,172.955 302.380 C 172.990 301.993,172.990 301.318,172.956 300.880 C 172.922 300.442,172.893 300.758,172.892 301.583 M174.883 303.167 C 174.883 303.671,174.915 303.877,174.953 303.625 C 174.991 303.373,174.991 302.960,174.953 302.708 C 174.915 302.456,174.883 302.662,174.883 303.167 M174.875 305.583 C 174.877 305.950,174.911 306.080,174.951 305.873 C 174.991 305.666,174.990 305.366,174.948 305.206 C 174.906 305.047,174.874 305.217,174.875 305.583 M303.372 305.833 C 303.372 306.154,303.406 306.285,303.448 306.125 C 303.490 305.965,303.490 305.702,303.448 305.542 C 303.406 305.381,303.372 305.512,303.372 305.833 M172.875 306.417 C 172.877 306.783,172.911 306.914,172.951 306.706 C 172.991 306.499,172.990 306.199,172.948 306.040 C 172.906 305.880,172.874 306.050,172.875 306.417 M98.550 307.333 C 98.550 307.837,98.581 308.044,98.619 307.792 C 98.658 307.540,98.658 307.127,98.619 306.875 C 98.581 306.623,98.550 306.829,98.550 307.333 M289.726 308.250 C 289.725 309.075,289.754 309.434,289.788 309.047 C 289.823 308.660,289.824 307.985,289.789 307.547 C 289.755 307.109,289.726 307.425,289.726 308.250 M172.885 310.417 C 172.886 310.967,172.917 311.172,172.954 310.872 C 172.991 310.572,172.990 310.122,172.952 309.872 C 172.914 309.622,172.884 309.867,172.885 310.417 M273.458 313.951 C 273.665 313.991,274.002 313.991,274.208 313.951 C 274.415 313.911,274.246 313.879,273.833 313.879 C 273.421 313.879,273.252 313.911,273.458 313.951 M295.458 314.118 C 295.665 314.157,296.002 314.157,296.208 314.118 C 296.415 314.078,296.246 314.045,295.833 314.045 C 295.421 314.045,295.252 314.078,295.458 314.118  M -25 0 L -5 0 L -5 20 L -25 20 Z M 405 0 L 425 0 L 425 20 L 405 20 Z" stroke="none" fill="#7a5c5c" fill-rule="evenodd" transform="translate(490,460)"></path></g></svg>